<svg xmlns="http://www.w3.org/2000/svg" viewBox="0 0 16 16"><path fill="#111" d="M13.504 1.463h-1.223V.502a.5.5 0 0 0-1 0v.961H4.742V.502a.5.5 0 0 0-1 0v.961H2.52c-.758 0-1.374.616-1.374 1.374v11.339a.5.5 0 0 0 .5.5h12.732a.5.5 0 0 0 .5-.5V2.837c0-.758-.616-1.374-1.374-1.374zm-10.984 1h10.984c.206 0 .374.168.374.374v1.857H2.146V2.837c0-.206.168-.374.374-.374zm-.374 11.213V5.694h11.732v7.982H2.146z"/><path fill="#111" d="M12.117 8.904h-2.5a.5.5 0 0 0-.5.5v2.5a.5.5 0 0 0 .5.5h2.5a.5.5 0 0 0 .5-.5v-2.5a.5.5 0 0 0-.5-.5zm-.5 2.5h-1.5v-1.5h1.5v1.5z"/></svg>