<svg xmlns="http://www.w3.org/2000/svg" viewBox="0 0 24 24"><path fill="#111" d="M19.779 4.218c-4.29-4.292-11.274-4.292-15.563 0-4.292 4.291-4.292 11.273 0 15.563C6.361 21.927 9.179 23 11.998 23s5.637-1.073 7.782-3.219c4.29-4.289 4.29-11.271-.001-15.563zm-.804 14.759c-3.849 3.847-10.106 3.847-13.955 0-3.847-3.847-3.847-10.107 0-13.955 1.924-1.923 4.451-2.885 6.977-2.885s5.054.962 6.977 2.885c3.847 3.848 3.847 10.109.001 13.955z"/><path fill="#111" d="M11.871 7.122c-1.861 0-2.733 1.544-2.956 2.018-.111.233.025.54.247.671.023.014.136.071.161.081a.499.499 0 0 0 .633-.251c.242-.508.812-1.359 1.915-1.359.599 0 1.087.178 1.414.515.263.271.401.634.39 1.02-.022.715-.391.966-.993 1.288-.617.319-1.385.716-1.385 1.75v1.216a.5.5 0 0 0 .5.5h.169a.502.502 0 0 0 .5-.503l-.01-1.209c-.005-.282.134-.394.76-.725.599-.319 1.602-.853 1.628-2.301a2.557 2.557 0 0 0-.729-1.853c-.551-.562-1.327-.858-2.244-.858z"/><circle fill="#111" cx="11.876" cy="16.213" r=".843"/></svg>