<svg xmlns="http://www.w3.org/2000/svg" viewBox="0 0 24 24"><path fill="#fff" d="M19.782 4.218c-4.29-4.292-11.274-4.292-15.563 0-4.292 4.291-4.292 11.273 0 15.563C6.364 21.927 9.182 23 12 23s5.637-1.073 7.782-3.219c4.291-4.289 4.291-11.271 0-15.563zm-.804 14.759c-3.849 3.847-10.106 3.847-13.955 0-3.847-3.848-3.847-10.107 0-13.955C6.947 3.099 9.474 2.137 12 2.137s5.054.962 6.977 2.885c3.847 3.848 3.847 10.108.001 13.955z"/><path fill="#fff" d="M15.613 8.311l-4.834 6.056-2.399-2.862a.601.601 0 0 0-.92.772l2.87 3.423a.599.599 0 0 0 .46.214h.007a.597.597 0 0 0 .462-.226l5.291-6.629a.6.6 0 1 0-.937-.748z"/></svg>