<svg width="152px" height="20px" viewBox="0 0 152 20" version="1.1" xmlns="http://www.w3.org/2000/svg" xmlns:xlink="http://www.w3.org/1999/xlink">
    <g id="collector_logo" stroke="none" stroke-width="1" fill="none" fill-rule="evenodd">
        <path d="M120.962861,5.26023887 C122.607783,5.26023887 124.087714,5.84122798 125.22366,6.79021018 L125.22366,6.79021018 L125.22366,5.59723255 L127.496553,5.59723255 L127.496553,17.6920058 L125.22366,17.6920058 L125.22366,16.4380293 C124.143711,17.3780117 122.705779,18 120.962861,18 C116.898052,18 114.429168,14.6120635 114.429168,11.5531209 C114.429168,8.25418273 117.204037,5.26023887 120.962861,5.26023887 Z M58.9125276,5.25443898 C61.0804256,5.25443898 62.9613371,6.26542002 64.1432815,7.80239121 L64.1432815,7.80239121 L62.4203626,9.1893652 C61.6853972,8.10438554 60.455455,7.33040005 58.9125276,7.33040005 C56.355648,7.33040005 54.6507282,9.44936032 54.6507282,11.6123198 C54.6507282,13.7982788 56.3776469,15.9172391 58.9125276,15.9172391 C60.4034575,15.9172391 61.6563985,15.1602532 62.410363,14.052274 L62.410363,14.052274 L64.1132829,15.4222483 C63.0003353,16.9022206 61.2224189,17.9942001 58.9125276,17.9942001 C54.846719,17.9942001 52.3778352,14.6062636 52.3778352,11.547321 C52.3778352,8.24738286 55.1537045,5.25443898 58.9125276,5.25443898 Z M6.53369253,5.25443898 C8.70259047,5.25443898 10.583502,6.26542002 11.7644464,7.80239121 L11.7644464,7.80239121 L10.0415275,9.1893652 C9.30656204,8.10438554 8.07761988,7.33040005 6.53369253,7.33040005 C3.97681286,7.33040005 2.27289304,9.44936032 2.27289304,11.6123198 C2.27289304,13.7982788 3.99881182,15.9172391 6.53369253,15.9172391 C8.02462237,15.9172391 9.27856336,15.1602532 10.0325279,14.052274 L10.0325279,14.052274 L11.7354477,15.4222483 C10.6215002,16.9022206 8.84358383,17.9942001 6.53369253,17.9942001 C2.46888382,17.9942001 -2.91322522e-13,14.6062636 -2.91322522e-13,11.547321 C-2.91322522e-13,8.24738286 2.77586937,5.25443898 6.53369253,5.25443898 Z M44.858489,5.25303901 C48.1363348,5.25303901 50.9982001,7.919989 51.020199,11.4599226 C51.020199,11.8529153 50.9772011,12.4649038 50.9552021,12.6189009 L50.9552021,12.6189009 L40.9246741,12.6189009 C41.4926474,14.9558571 43.3735589,15.917839 44.9024869,15.917839 C46.3094207,15.917839 47.3893699,15.227852 48.0263399,14.3878677 L48.0263399,14.3878677 L50.4142276,14.3878677 C49.1572867,17.1138166 46.5884076,17.9938001 44.8144911,17.9938001 C41.3836525,17.9938001 38.6517811,15.0448554 38.6517811,11.6129198 C38.6517811,7.98598776 41.4496494,5.25303901 44.858489,5.25303901 Z M19.7932686,5.25383899 C23.4640958,5.25383899 26.3269611,8.1387849 26.3269611,11.5917202 C26.3269611,14.5406649 23.9010752,17.9936001 19.7932686,17.9936001 C15.7294598,17.9936001 13.260576,14.6066636 13.260576,11.546721 C13.260576,8.24878284 16.0344454,5.25383899 19.7932686,5.25383899 Z M78.7963919,5.25383899 C82.4672192,5.25383899 85.3310844,8.1387849 85.3310844,11.5917202 C85.3310844,14.5406649 82.9051986,17.9936001 78.7963919,17.9936001 C74.7325832,17.9936001 72.2636994,14.6066636 72.2636994,11.546721 C72.2636994,8.24878284 75.0385688,5.25383899 78.7963919,5.25383899 Z M102.519129,2.00089998 L102.519129,6.78681025 C103.642076,5.84382793 105.112006,5.25383899 106.778928,5.25383899 C110.449755,5.25383899 113.312621,8.1387849 113.312621,11.5917202 C113.312621,14.5406649 110.887735,17.9936001 106.778928,17.9936001 C105.04501,17.9936001 103.604077,17.3756117 102.519129,16.4316294 L102.519129,16.4316294 L102.519129,17.6876059 L100.245236,17.6876059 L100.245236,2.00089998 L102.519129,2.00089998 Z M92.7625347,5.25473897 L92.7625347,7.59169516 C92.4115512,7.59169516 91.6685862,7.74469229 91.1226119,8.02868696 C90.4026458,8.42367956 89.7896746,9.34066236 89.7896746,11.06563 L89.7896746,11.06563 L89.7896746,17.6885058 L87.5177815,17.6885058 L87.5177815,5.58173284 L89.6366818,5.58173284 L89.6366818,6.67471235 L89.6806797,6.67471235 C90.6416345,5.32073774 92.1935615,5.27673856 92.7625347,5.25473897 L92.7625347,5.25473897 Z M36.4285857,2.0002 L36.4285857,17.6879059 L34.1556927,17.6879059 L34.1556927,2.0002 L36.4285857,2.0002 Z M30.8188497,2.0002 L30.8188497,17.6879059 L28.5469566,17.6879059 L28.5469566,2.0002 L30.8188497,2.0002 Z M69.7118194,2 L69.7118194,5.58293282 L71.6997259,5.58293282 L71.6997259,7.65789391 L69.7118194,7.65789391 L69.7118194,17.6877059 L67.4389264,17.6877059 L67.4389264,7.68589339 L65.45002,7.68589339 L65.45002,5.60893233 L67.4389264,5.60893233 L67.4389264,2 L69.7118194,2 Z M135.227289,5.25773892 C137.105201,5.25773892 138.635129,6.06672375 139.509088,7.4186984 C139.989065,8.20568364 140.251053,9.16766561 140.273052,10.5196403 L140.273052,10.5196403 L140.273052,17.6835059 L138.001159,17.6835059 L138.001159,10.9746317 C137.995159,9.92465141 137.867165,7.33270001 134.987301,7.33270001 C133.08739,7.33270001 131.798451,8.66467504 131.798451,11.0886296 L131.798451,11.0886296 L131.798451,17.6835059 L129.527558,17.6835059 L129.527558,5.58473279 L131.645458,5.58473279 L131.645458,6.87370862 L131.689456,6.87370862 C132.912398,5.25773892 134.747312,5.25773892 135.227289,5.25773892 Z M144.324361,2.01429973 L144.324361,10.3481435 L149.050139,5.57923289 L151.846007,5.57923289 L146.47526,10.8811335 L152,17.6480066 L149.317126,17.6480066 L144.324361,11.4361231 L144.324361,17.6480066 L141.995471,17.6480066 L141.995471,2.01429973 L144.324361,2.01429973 Z M120.962861,7.33619995 C118.405981,7.33619995 116.701061,9.4561602 116.701061,11.6191196 C116.701061,13.8040787 118.42798,15.9240389 120.962861,15.9240389 C123.408745,15.9240389 125.22266,13.892077 125.22366,11.59912 C125.22266,9.45516022 123.51874,7.33619995 120.962861,7.33619995 Z M19.7932686,7.33080005 C17.2363889,7.33080005 15.5324691,9.44976032 15.5324691,11.6127198 C15.5324691,13.7986788 17.2583878,15.917639 19.7932686,15.917639 C22.2401534,15.917639 24.054068,13.8846772 24.054068,11.5917202 C24.054068,9.44976032 22.3501482,7.33080005 19.7932686,7.33080005 Z M78.7963919,7.33080005 C76.2395123,7.33080005 74.5355924,9.44976032 74.5355924,11.6127198 C74.5355924,13.7986788 76.2625112,15.917639 78.7963919,15.917639 C81.2442767,15.917639 83.0581914,13.8846772 83.0581914,11.5917202 C83.0581914,9.44976032 81.3532716,7.33080005 78.7963919,7.33080005 Z M106.778928,7.33080005 C104.229048,7.33080005 102.529128,9.43676056 102.519129,11.5937201 L102.519129,11.5937201 L102.519129,11.6317194 C102.529128,13.8106785 104.251047,15.917639 106.778928,15.917639 C109.225813,15.917639 111.040727,13.8846772 111.040727,11.5917202 C111.040727,9.44976032 109.335808,7.33080005 106.778928,7.33080005 Z M44.83749,7.33000006 C42.6515929,7.33000006 41.033669,9.09996688 40.9246741,10.8699337 L40.9246741,10.8699337 L48.748306,10.8699337 C48.6383111,9.09996688 47.0223872,7.33000006 44.83749,7.33000006 Z" id="Logotype_C-152x16-Copy-20" fill="#FFFFFF"></path>
    </g>
</svg>
