<svg width="20px" height="20px" viewBox="0 0 20 20" version="1.1" xmlns="http://www.w3.org/2000/svg" xmlns:xlink="http://www.w3.org/1999/xlink">
    <g id="creditcards_menu-icon" stroke="none" stroke-width="1" fill="none" fill-rule="evenodd">
        <path d="M17.7142857,4 L2.28571429,4 C1.57563389,4 1,4.55964406 1,5.25 L1,15.25 C1,15.9403559 1.57563389,16.5 2.28571429,16.5 L17.7142857,16.5 C18.4243661,16.5 19,15.9403559 19,15.25 L19,5.25 C19,4.55964406 18.4243661,4 17.7142857,4 Z M17.7142857,5.25 L17.7142857,7.125 L2.28571429,7.125 L2.28571429,5.25 L17.7142857,5.25 Z M2.28571429,15.25 L2.28571429,8.375 L17.7142857,8.375 L17.7142857,15.25 L2.28571429,15.25 Z M3.57142857,12.75 L10,12.75 L10,14 L3.57142857,14 L3.57142857,12.75 Z" id="Fill-Copy" fill="#FFFFFF"></path>
    </g>
</svg>
