<svg width="20px" height="20px" viewBox="0 0 20 20" version="1.1" xmlns="http://www.w3.org/2000/svg" xmlns:xlink="http://www.w3.org/1999/xlink">
    <g id="customersvc_menu-icon" stroke="none" stroke-width="1" fill="none" fill-rule="evenodd">
        <path d="M13.158,2 L6.844,2 C4.977,2 4.21,2.221 3.447,2.628 C2.66,3.05 2.049,3.662 1.628,4.447 C1.22,5.211 1,5.978 1,7.844 L1,10.036 C1,11.181 1.199,12.087 1.629,12.892 C2.05,13.679 2.662,14.29 3.447,14.709 C3.728,14.859 4.023,14.982 4.337,15.077 C3.57,16.702 2.865,18.146 2.865,18.148 C2.766,18.349 2.805,18.59 2.961,18.749 C3.063,18.854 3.201,18.909 3.341,18.909 C3.415,18.909 3.49,18.894 3.559,18.862 L11.328,15.338 L13.158,15.338 C15.027,15.338 15.794,15.117 16.554,14.709 C17.341,14.288 17.953,13.677 18.372,12.892 C18.779,12.132 19,11.364 19,9.495 L19,7.844 C19,5.973 18.779,5.206 18.373,4.447 C17.953,3.663 17.343,3.052 16.554,2.627 C15.79,2.22 15.023,2 13.158,2 M13.158,3.25 C14.925,3.25 15.456,3.458 15.962,3.728 C16.537,4.037 16.965,4.466 17.27,5.036 C17.542,5.544 17.75,6.073 17.75,7.844 L17.75,9.495 C17.75,11.265 17.542,11.794 17.269,12.303 C16.969,12.865 16.53,13.305 15.964,13.607 C15.456,13.88 14.927,14.088 13.158,14.088 L11.328,14.088 L11.058,14.088 L10.812,14.199 L4.853,16.902 C5.044,16.504 5.253,16.064 5.468,15.61 L6.085,14.302 L4.7,13.881 C4.466,13.811 4.249,13.721 4.036,13.606 C3.471,13.306 3.033,12.866 2.731,12.304 C2.403,11.688 2.25,10.967 2.25,10.036 L2.25,7.844 C2.25,6.078 2.458,5.547 2.729,5.038 C3.037,4.465 3.465,4.037 4.035,3.73 C4.546,3.458 5.077,3.25 6.844,3.25 L13.158,3.25 M11.2857143,9.65689771 L11.2857143,10.942612 L4.85714286,10.942612 L4.85714286,9.65689771 L11.2857143,9.65689771 Z M15.1428571,6.11625013 L15.1428571,7.40196441 L4.85714286,7.40196441 L4.85714286,6.11625013 L15.1428571,6.11625013 Z" id="Fill-1" fill="#FFFFFF"></path>
    </g>
</svg>
