<svg width="20px" height="20px" viewBox="0 0 20 20" version="1.1" xmlns="http://www.w3.org/2000/svg" xmlns:xlink="http://www.w3.org/1999/xlink">
    <defs>
        <polygon id="path-1" points="0 0.1499 18.4069 0.1499 18.4069 7.9999 0 7.9999"></polygon>
    </defs>
    <g id="loans_menu-icon" stroke="none" stroke-width="1" fill="none" fill-rule="evenodd">
        <g id="Group-2" transform="translate(0.000000, 3.000000)">
            <path d="M15.6587,0 C13.9327,0 12.3307,0.416 10.8537,1.25 C8.7997,2.411 6.8337,3.267 4.9567,3.813 C4.2337,4.018 3.5647,4.119 2.9507,4.119 C2.3367,4.119 1.7777,4.018 1.2737,3.813 L4.2437,11.506 C4.7987,11.835 5.4457,12 6.1837,12 C6.7297,12 7.3257,11.91 7.9717,11.729 C9.7887,11.19 11.7027,10.356 13.7137,9.229 C15.2817,8.343 16.9807,7.9 18.8107,7.9 C18.9547,7.9 19.0987,7.903 19.2427,7.908 C19.4887,7.908 19.7407,7.925 19.9997,7.958 L16.9507,0.08 C16.8397,0.062 16.7327,0.051 16.6287,0.042 C16.3007,0.014 15.9777,0 15.6587,0 M15.6587,1.224 L15.6587,1.224 C15.7987,1.224 15.9407,1.228 16.0847,1.233 L18.1967,6.691 C16.3897,6.782 14.6817,7.275 13.1137,8.16 C11.1927,9.239 9.3457,10.045 7.6437,10.551 C7.1077,10.699 6.6167,10.775 6.1837,10.775 C5.8197,10.775 5.4987,10.724 5.2137,10.617 L3.1757,5.34 C3.8357,5.317 4.5467,5.201 5.2997,4.989 C7.2577,4.418 9.3297,3.518 11.4557,2.316 C12.7397,1.592 14.1547,1.224 15.6587,1.224" id="Fill-1" fill="#FFFFFF"></path>
            <g id="Group-5" transform="translate(0.000000, 6.499500)">
                <mask id="mask-2" fill="white">
                    <use xlink:href="#path-1"></use>
                </mask>
                <g id="Clip-4"></g>
                <path d="M14.2549,3.8189 C12.1799,4.9839 10.1699,5.8589 8.2989,6.4149 C7.5389,6.6279 6.8269,6.7349 6.1839,6.7349 C5.2499,6.7349 4.4079,6.5159 3.6829,6.0859 L3.3299,5.8759 L1.1179,0.1499 L-0.0001,0.5739 L2.3919,6.7669 L3.1079,7.1909 C4.0109,7.7279 5.0469,7.9999 6.1839,7.9999 C6.9269,7.9999 7.7269,7.8819 8.5989,7.6389 C10.5679,7.0539 12.6559,6.1459 14.8059,4.9389 C15.9269,4.3069 17.1129,3.9839 18.4069,3.9249 L17.9299,2.6889 C16.6239,2.8039 15.4099,3.1679 14.2549,3.8189" id="Fill-3" fill="#FFFFFF" mask="url(#mask-2)"></path>
            </g>
        </g>
    </g>
</svg>
