<svg width="20px" height="20px" viewBox="0 0 20 20" version="1.1" xmlns="http://www.w3.org/2000/svg" xmlns:xlink="http://www.w3.org/1999/xlink">
    <g id="logout_menu-icon" stroke="none" stroke-width="1" fill="none" fill-rule="evenodd">
        <path d="M3.75,18.75 L11.25,18.75 C11.9400703,18.749311 12.499311,18.1900703 12.5,17.5 L12.5,15.625 L11.25,15.625 L11.25,17.5 L3.75,17.5 L3.75,2.5 L11.25,2.5 L11.25,4.375 L12.5,4.375 L12.5,2.5 C12.499311,1.80992967 11.9400703,1.25068904 11.25,1.25 L3.75,1.25 C3.05992967,1.25068904 2.50068904,1.80992967 2.5,2.5 L2.5,17.5 C2.50068904,18.1900703 3.05992967,18.749311 3.75,18.75 Z M12.86625,12.86625 L15.1075,10.625 L6.25,10.625 L6.25,9.375 L15.1075,9.375 L12.86625,7.13375 L13.75,6.25 L17.5,10 L13.75,13.75 L12.86625,12.86625 Z" id="Fill" fill="#FFFFFF"></path>
    </g>
</svg>
