<svg width="20px" height="20px" viewBox="0 0 20 20" version="1.1" xmlns="http://www.w3.org/2000/svg" xmlns:xlink="http://www.w3.org/1999/xlink">
    <g id="payments_menu-icon" stroke="none" stroke-width="1" fill="none" fill-rule="evenodd">
        <path d="M10.625,15 L13.125,15 L13.125,17.5 L10.625,17.5 L10.625,15 Z M15,15 L17.5,15 L17.5,17.5 L15,17.5 L15,15 Z M10.625,10.625 L13.125,10.625 L13.125,13.125 L10.625,13.125 L10.625,10.625 Z M15,10.625 L17.5,10.625 L17.5,13.125 L15,13.125 L15,10.625 Z M17.5,6.875 L13.75,6.875 L13.75,4.375 C13.75,3.3125 12.9375,2.5 11.875,2.5 L8.125,2.5 C7.0625,2.5 6.25,3.3125 6.25,4.375 L6.25,6.875 L2.5,6.875 C2.125,6.875 1.875,7.125 1.875,7.5 L1.875,7.625 L3.0625,15.1875 C3.125,15.8125 3.6875,16.25 4.3125,16.25 L9.375,16.25 L9.375,15 L4.3125,15 L3.25,8.125 L17.5,8.125 L17.5,6.875 Z M7.5,4.375 C7.5,4 7.75,3.75 8.125,3.75 L11.875,3.75 C12.25,3.75 12.5,4 12.5,4.375 L12.5,6.875 L7.5,6.875 L7.5,4.375 Z" id="Fill" fill="#FFFFFF"></path>
    </g>
</svg>
