<svg width="20px" height="20px" viewBox="0 0 20 20" version="1.1" xmlns="http://www.w3.org/2000/svg" xmlns:xlink="http://www.w3.org/1999/xlink">
    <g id="savings_menu-icon" stroke="none" stroke-width="1" fill="none" fill-rule="evenodd">
        <path d="M14.7717188,2 L14.8812074,2.00587505 C15.3849647,2.06023779 15.7811981,2.48524687 15.7811981,3.00390226 L15.7794324,4.85946198 L16.015453,5.0292898 C17.0185832,5.77975625 17.7657005,6.69542613 18.2055292,7.74481831 L18.2676904,7.9015484 L18.7666139,7.90192754 C19.4464785,7.90192754 20,8.45557764 20,9.13531363 L20,11.4902598 L19.9936191,11.6161798 C19.9303314,12.2373394 19.4041076,12.724059 18.7666139,12.724059 L18.0136042,12.7083427 L17.9489649,12.8339843 C17.5878283,13.5017455 17.0960249,14.1079859 16.4893441,14.6425439 L16.2617991,14.8353219 L16.2608213,16.3887378 C16.2608213,17.0510841 15.7213846,17.5905208 15.0590383,17.5905208 L13.0932439,17.5905208 L12.970596,17.5843009 C12.3655752,17.5226111 11.8914609,17.0096874 11.8914609,16.3887378 L11.8917155,15.7414964 L11.8355252,15.7495993 C11.4453391,15.7929776 11.0468103,15.8106811 10.629249,15.804015 L10.2814792,15.7921558 C10.1659053,15.7860882 10.0507008,15.7779118 9.9359261,15.7676438 L9.61685018,15.7335562 L9.61653117,16.3887378 C9.61653117,17.0511213 9.07726383,17.5905208 8.41474817,17.5905208 L6.44895373,17.5905208 L6.32630584,17.5843009 C5.72128501,17.5226111 5.24717073,17.0096874 5.24717073,16.3887378 L5.23287116,14.8035611 L5.04752949,14.6474214 C3.61317976,13.3819512 2.78936614,11.6935967 2.81815096,9.9015885 C2.82503053,9.47046892 2.8797561,9.04519956 2.98093328,8.63020958 L2.99266568,8.59214354 C2.38120465,8.32812844 1.5725543,7.74583911 1.35399073,6.83792097 C1.16419927,6.74699667 0.96270262,6.62304695 0.750754887,6.45687492 C-0.27136006,5.65527761 -0.0380921364,4.68290996 0.228201157,4.2807527 C0.359048587,4.0836455 0.624505763,4.02909091 0.821403974,4.16035636 C1.0187202,4.29078573 1.07264775,4.55645198 0.942218376,4.75355918 L0.936944719,4.7619516 L0.936944719,4.7619516 L0.914029193,4.80579608 C0.848579652,4.94769453 0.733147751,5.35509826 1.27916093,5.78319871 C1.3050796,5.80368283 1.33099826,5.82333083 1.35733495,5.84235178 C1.35817102,5.83754427 1.35942516,5.83273681 1.36067929,5.82772027 C1.56886462,4.93206344 2.05588454,4.70172184 2.32761243,4.64424097 C2.75401616,4.55457076 3.22264218,4.751678 3.52070675,5.1479826 C3.78198355,5.49474915 3.83465692,5.89586126 3.66200523,6.22088961 C3.44169666,6.63558812 3.05667917,6.92821814 2.60561095,7.02374092 C2.53621582,7.03858146 2.45971399,7.04986862 2.37610542,7.0555122 C2.62058069,7.42125125 3.01056753,7.65254236 3.25524078,7.77019896 C3.2838391,7.6910356 3.31454378,7.6173253 3.34795301,7.544159 L3.44227874,7.35219926 C3.45946433,7.31957073 3.47754395,7.28633873 3.49676021,7.25207449 L3.62763805,7.03067186 L3.79743932,6.76391406 C3.82963006,6.71453143 3.86392779,6.66240144 3.90057509,6.60709533 C5.3446902,4.53743407 7.97524299,3.27878369 10.84341,3.32451658 L11.2340827,3.3384811 C11.62097,3.36008784 11.9971015,3.40468192 12.36788,3.47280947 L12.6053403,3.52054695 L12.6651829,3.42047218 C12.9059422,3.0532053 13.2186961,2.7492232 13.5823346,2.50378279 C13.8749344,2.30629051 14.1632761,2.16937997 14.4183918,2.08075088 L14.6071671,2.02222305 L14.7717188,2 Z M14.5407623,3.36869076 L14.4956481,3.39034006 C14.0905549,3.59939344 13.7142027,3.94839952 13.5209327,4.45878655 C13.4077589,4.75765551 13.0860466,4.92163415 12.7777106,4.83761117 C12.1460599,4.66548347 11.5098624,4.57604243 10.8235522,4.56501279 C8.35621161,4.52567108 6.11865245,5.59628433 4.92638398,7.30474714 L4.69540749,7.66261335 C4.67489458,7.69570073 4.65589885,7.72690019 4.63822045,7.75654896 L4.54635902,7.91853149 C4.53315047,7.94332655 4.52085952,7.96724544 4.50928631,7.9906254 L4.44270118,8.13721517 L4.35265811,8.38289344 L4.17782043,8.95523873 C4.10694726,9.24948037 4.06405067,9.58282739 4.05864713,9.92144905 C4.03378934,11.4689787 4.82935565,12.9444752 6.22654735,14.0110382 L6.29731552,14.0741728 C6.40623087,14.1874422 6.46898056,14.3389225 6.47044887,14.4984091 L6.48841417,16.3489212 L8.37619504,16.3489212 L8.37587602,15.0005512 C8.37587602,14.5975578 8.75412624,14.3015458 9.14530542,14.3984093 L9.1886822,14.4091502 C9.64650445,14.5015052 10.1439741,14.555555 10.6489296,14.563516 C11.2570799,14.5732246 11.8105973,14.5245211 12.3602786,14.4125384 C12.5035317,14.3833545 12.6524892,14.4057036 12.7808703,14.4756425 L12.8085488,14.4907211 L12.8892716,14.5431887 C13.0409248,14.6594488 13.132116,14.8407836 13.132116,15.0354592 L13.1323706,16.3489212 L15.021144,16.3489212 L15.0201662,14.5338639 C15.0201662,14.3387654 15.1119508,14.1550341 15.2679469,14.0378648 C16.0939146,13.4174773 16.6989713,12.6751715 17.0522073,11.8389941 L17.0952632,11.7553454 C17.2092249,11.5699865 17.4141603,11.4556559 17.6363041,11.4601923 L18.7599823,11.4825754 L18.7599823,9.14220354 L17.8066476,9.14258269 L17.7149802,9.13585674 C17.4457622,9.09598086 17.2329219,8.88314056 17.193046,8.61392258 L17.19,8.577 L17.1362983,8.4153805 C16.7465081,7.35400654 15.9576491,6.43723197 14.824819,5.71345417 C14.6462541,5.59936706 14.5382775,5.40202496 14.5384776,5.19012579 L14.5407623,3.36869076 Z M2.54415856,5.48011765 C2.34307993,5.48011765 2.23355273,5.85342991 2.19425669,6.02169216 C2.18046126,6.08189033 2.17042823,6.14041635 2.1641576,6.19747917 C2.25696313,6.20730321 2.34558824,6.20374984 2.42794267,6.18619205 C2.63361978,6.14271559 2.80334515,6.01228622 2.90492957,5.82249475 C2.91997909,5.75351769 2.7765904,5.52819258 2.58261852,5.48429807 C2.56924115,5.48137178 2.55669985,5.48011765 2.54415856,5.48011765 Z" id="Combined-Shape" fill="#FFFFFF" fill-rule="nonzero"></path>
    </g>
</svg>
