<svg width="20px" height="20px" viewBox="0 0 20 20" version="1.1" xmlns="http://www.w3.org/2000/svg" xmlns:xlink="http://www.w3.org/1999/xlink">
    <g id="securemsg_menu-icon" stroke="none" stroke-width="1" fill="none" fill-rule="evenodd">
        <path d="M17.7142857,4 L2.28571429,4 C1.57563389,4 1,4.57563389 1,5.28571429 L1,15.5714286 C1,16.281509 1.57563389,16.8571429 2.28571429,16.8571429 L17.7142857,16.8571429 C18.4243661,16.8571429 19,16.281509 19,15.5714286 L19,5.28571429 C19,4.57563389 18.4243661,4 17.7142857,4 Z M16.3,5.28571429 L10,9.64428571 L3.7,5.28571429 L16.3,5.28571429 Z M2.28571429,15.5714286 L2.28571429,5.87071429 L9.63357143,10.9557143 C9.85393939,11.1085903 10.1460606,11.1085903 10.3664286,10.9557143 L17.7142857,5.87071429 L17.7142857,15.5714286 L2.28571429,15.5714286 Z" id="Fill" fill="#FFFFFF"></path>
    </g>
</svg>
