<svg width="20px" height="20px" viewBox="0 0 20 20" version="1.1" xmlns="http://www.w3.org/2000/svg" xmlns:xlink="http://www.w3.org/1999/xlink">
    <g id="start_menu-icon" stroke="none" stroke-width="1" fill="none" fill-rule="evenodd">
        <path d="M10.366,2.12923891 C10.1479331,1.95692036 9.84006685,1.95692036 9.622,2.12923891 L1,8.85523891 L1.744,9.80323891 L2.8,8.97523891 L2.8,16.4032389 C2.8,17.0659806 3.3372583,17.6032389 4,17.6032389 L16,17.6032389 C16.6627417,17.6032389 17.2,17.0659806 17.2,16.4032389 L17.2,8.98123891 L18.256,9.80323891 L19,8.86123891 L10.366,2.12923891 Z M11.2,16.4032389 L8.8,16.4032389 L8.8,11.6032389 L11.2,11.6032389 L11.2,16.4032389 Z M12.4,16.4032389 L12.4,11.6032389 C12.4,10.9404972 11.8627417,10.4032389 11.2,10.4032389 L8.8,10.4032389 C8.1372583,10.4032389 7.6,10.9404972 7.6,11.6032389 L7.6,16.4032389 L4,16.4032389 L4,8.03923891 L10,3.36523891 L16,8.04523891 L16,16.4032389 L12.4,16.4032389 Z" id="Fill" fill="#FFFFFF"></path>
    </g>
</svg>
